<svg xmlns="http://www.w3.org/2000/svg" version="1.1" xmlns:xlink="http://www.w3.org/1999/xlink" xmlns:svgjs="http://svgjs.dev/svgjs" viewBox="0 0 800 800"><g stroke-width="2" stroke="#15833e" fill="none" stroke-linecap="round"><path d="M378.45 88.57C388.99 90.78 399.35 90.89 409.49 89.07 419.64 85.35 429.6 81.29 439.34 77.98 449.11 75.84 458.71 76.21 468.14 79.37 477.64 84.84 487.02 92.6 496.31 101.88 505.74 111.5 515.14 120.94 524.54 129.47 534.16 136.27 543.85 141.51 553.64 145.3 563.72 147.45 573.95 148.97 584.33 150.45 595.03 151.89 605.88 154.37 616.86 158.27 628.07 163.35 639.33 170.21 650.54 178.7 661.8 188.47 672.84 199.52 683.5 211.49 693.92 224.08 703.7 237.06 712.67 250.13 721.02 263.19 728.29 276.03 734.29 288.56 739.38 300.77 743.01 312.65 745.08 324.23 746.11 335.51 745.57 346.62 743.47 357.65 740.52 368.5 736.24 379.42 730.76 390.49 724.94 401.5 718.34 412.76 711.22 424.28 704.46 435.8 697.8 447.32 691.46 458.77 686.05 470.17 681.22 481.4 677.06 492.3 674.04 502.98 671.68 513.1 669.93 522.45 669.19 531.31 668.85 539.11 668.77 545.67 670.13 558.41 668.56 568.65 665.35 573.75 662.55 579.82 658.8 588.14 654.12 599.09 649.01 612.74 642.98 628.65 636.12 646.13 628.86 664.02 620.83 681.09 612.14 695.78 603.16 706.93 593.61 713.35 583.59 714.38 573.39 710.89 562.82 703.22 551.96 693 541.01 683.26 529.83 675.53 518.51 672 507.17 674.62 495.71 683.25 484.2 697.12 472.69 714.49 461.14 732.26 449.59 747.17 438.06 756.73 426.52 758.66 415 752.34 403.49 739.63 392.26 722.84 381.32 705.47 370.35 691.11 359.66 681.95 349.23 679.18 338.75 683.21 328.52 692.11 318.53 703.49 308.47 715.48 298.63 724.71 289.01 729.24 279.3 728.55 269.78 721.79 260.47 709.81 251.04 694.11 241.8 676.21 232.76 658.01 223.61 641.1 214.65 626.69 205.91 615.47 197.07 607.88 188.46 603.45 180.12 601.49 171.72 601.81 163.61 602.9 155.83 603.82 148.06 604.65 140.65 603.99 133.67 601.48 126.76 597.62 120.3 591.67 114.35 583.85 108.53 574.73 103.25 564.17 98.54 552.59 94 540.28 90.05 527.44 86.72 514.42 83.57 501.15 81.03 487.98 79.14 475.09 77.4 462.18 76.29 449.65 75.82 437.55 75.45 425.49 75.71 413.86 76.59 402.7 77.52 391.54 79.02 381.07 81.04 371.27 83.04 361.42 85.53 352.18 88.47 343.49 91.32 334.66 94.58 326.28 98.21 318.22 101.7 309.85 105.55 301.59 109.7 293.29 113.69 284.4 117.98 275.2 122.55 265.52 126.95 255.05 131.65 243.98 136.63 232.29 141.46 220 146.6 207.36 152.05 194.65 157.39 182.13 163.08 170.24 169.1 159.45 175.08 149.93 181.43 142.18 188.14 136.44 194.86 132.3 201.97 129.98 209.44 129.14 216.96 128.63 224.85 128.36 233.09 127.63 241.4 125.26 250.05 121.38 259.01 115.8 268.03 108.28 277.34 99.75 286.91 90.99 296.52 82.58 306.37 75.83 316.4 71.57 326.47 69.75 336.7 70.85 347.06 74.44 357.42 79.04 367.9 84.14 378.44 88.57" stroke-dasharray="2 5" transform="rotate(0, 400, 400)" opacity="0.07"></path><path d="M377.54 103C387.6 105.25 397.53 105.52 407.31 103.92 417.09 100.4 426.74 96.39 436.25 92.88 445.79 90.23 455.21 89.77 464.53 91.9 473.92 96.25 483.25 103 492.54 111.55 501.95 120.88 511.39 130.52 520.84 139.73 530.5 147.65 540.23 154.24 550.07 159.41 560.14 162.83 570.33 165.25 580.64 167.12 591.19 168.37 601.83 170.05 612.51 172.58 623.35 175.79 634.15 180.44 644.8 186.58 655.43 193.88 665.75 202.61 675.63 212.53 685.2 223.33 694.11 234.91 702.18 246.98 709.65 259.42 716.06 271.99 721.27 284.52 725.63 297.03 728.64 309.36 730.22 321.43 730.88 333.36 730.12 345.07 727.95 356.55 725.04 367.94 720.93 379.19 715.75 390.33 710.28 401.44 704.11 412.5 697.43 423.51 691.07 434.52 684.76 445.19 678.71 455.47 673.48 465.7 668.72 475.42 664.52 484.52 661.33 493.43 658.72 501.55 656.64 508.76 655.09 518.54 654.32 532.51 654.34 537.11 654.51 541.65 652.39 553.66 649.57 563.85 647.18 573.4 643.95 585.06 639.89 598.82 635.48 614.29 630.24 630.91 624.21 647.78 617.83 663.77 610.72 677.8 602.96 688.62 594.92 695.65 586.3 698.09 577.2 695.86 567.9 690.26 558.2 681.83 548.16 672.27 538.02 664.28 527.62 659.03 517.01 658.19 506.36 663.07 495.55 673.16 484.64 687.48 473.71 704.31 462.71 720.86 451.66 734.31 440.61 742.68 429.52 744.02 418.42 737.91 407.32 726.02 396.46 710.3 385.85 693.77 375.22 679.59 364.82 669.74 354.66 665.48 344.46 667.45 334.47 674.26 324.7 684.05 314.87 695.37 305.23 705.2 295.79 711.6 286.28 713.89 276.94 710.78 267.79 702.53 258.55 690.2 249.49 674.73 240.61 657.69 231.66 640.53 222.89 624.53 214.33 610.65 205.71 599.55 197.31 591.33 189.18 585.75 181.02 582.8 173.15 581.46 165.61 580.96 158.09 581.34 150.94 581.27 144.21 580.23 137.55 578.63 131.35 575.48 125.64 570.72 120.06 564.95 115.01 557.67 110.51 549.13 106.19 539.8 102.44 529.57 99.29 518.73 96.32 507.49 93.95 495.95 92.21 484.33 90.63 472.59 89.65 460.93 89.3 449.48 89.06 438.03 89.42 426.83 90.39 415.94 91.4 405.06 92.96 394.71 95.03 384.88 97.07 374.98 99.58 365.52 102.5 356.39 105.34 347.1 108.56 338 112.14 328.99 115.57 319.63 119.33 310.16 123.39 300.44 127.27 290.2 131.45 279.56 135.88 268.47 140.15 256.85 144.69 244.83 149.49 232.52 154.14 220.1 159.07 207.79 164.29 195.92 169.39 184.73 174.81 174.62 180.54 165.95 186.2 158.67 192.2 153.17 198.54 149.51 204.86 147.04 211.53 145.88 218.55 145.62 225.59 145.09 232.98 144.27 240.7 142.56 248.45 139.04 256.54 133.99 264.93 127.4 273.36 119.26 282.08 110.5 291.06 101.93 300.07 94.07 309.31 88.07 318.77 84.59 328.24 83.47 337.89 85.06 347.7 88.9 357.52 93.58 367.47 98.62 377.53 103" stroke-dasharray="7 1" transform="rotate(4.590909090909091, 400, 400)" opacity="0.99"></path><path d="M377.81 117.43C387.42 119.72 396.95 120.14 406.38 118.76 415.82 115.49 425.18 111.6 434.46 107.96 443.76 104.9 453.01 103.7 462.2 104.83 471.46 108.03 480.71 113.65 489.94 121.26 499.3 129.99 508.69 139.47 518.13 149.01 527.73 157.74 537.42 165.5 547.18 172.04 557.13 176.91 567.17 180.61 577.28 183.42 587.55 185.18 597.86 186.82 608.14 188.75 618.5 190.8 628.73 193.81 638.75 197.97 648.67 202.99 658.23 209.34 667.29 216.91 676.01 225.4 684.04 234.91 691.24 245.2 697.86 256.08 703.47 267.43 707.93 279.03 711.63 290.88 714.09 302.76 715.23 314.55 715.57 326.38 714.62 338.04 712.41 349.47 709.58 360.89 705.66 372.07 700.77 382.99 695.65 393.91 689.88 404.59 683.63 414.96 677.67 425.34 671.72 435.15 665.96 444.34 660.9 453.49 656.24 461.96 652.03 469.68 648.72 477.27 645.9 484.06 643.53 490 641.42 498.35 639.4 511.7 638.87 517.68 638.8 522.34 638.43 527.46 637.66 533.43 636.93 540.89 635.62 549.76 633.69 560.3 631.59 572.57 628.77 586.4 625.21 601.5 621.39 617.21 616.8 632.95 611.5 647.77 605.9 660.8 599.62 671.13 592.7 677.89 585.54 681.06 577.8 680.19 569.56 675.59 561.15 668.85 552.3 660.56 543.08 652.33 533.76 646.47 524.13 643.8 514.25 645.47 504.32 652.27 494.19 663.47 483.9 677.93 473.6 694.02 463.17 709.28 452.65 721.32 442.13 728.55 431.53 729.38 420.88 723.48 410.22 712.39 399.76 697.72 389.5 682.06 379.24 668.17 369.16 657.82 359.29 652.29 349.38 652.36 339.66 657.08 330.12 665.09 320.54 675.3 311.13 685.1 301.9 692.67 292.61 697.27 283.48 697.34 274.52 692.72 265.5 684.03 256.64 671.67 247.97 656.85 239.23 640.77 230.68 624.57 222.35 609.33 213.97 595.8 205.82 584.46 197.93 575.46 190.04 568.95 182.44 564.41 175.16 561.33 167.93 559.76 161.06 558.63 154.59 557.4 148.22 556.39 142.29 554.52 136.83 551.58 131.52 548.13 126.72 543.39 122.45 537.45 118.36 530.89 114.82 523.27 111.87 514.79 109.1 505.89 106.9 496.38 105.32 486.44 103.88 476.32 103.04 465.96 102.81 455.48 102.68 444.96 103.14 434.42 104.18 423.91 105.27 413.4 106.89 403.15 108.98 393.16 111.05 383.13 113.56 373.26 116.47 363.49 119.29 353.58 122.48 343.64 126 333.59 129.38 323.26 133.06 312.69 137.03 301.83 140.83 290.64 144.89 279.12 149.21 267.33 153.36 255.38 157.76 243.33 162.4 231.41 166.89 219.8 171.64 208.75 176.66 198.56 181.55 189.34 186.72 181.44 192.18 175.09 197.57 170.02 203.26 166.53 209.26 164.5 215.22 163.14 221.51 162.55 228.11 162.27 234.71 161.23 241.64 159.47 248.88 156.57 256.14 151.85 263.71 145.7 271.57 138.29 279.46 129.75 287.63 121 296.05 112.82 304.5 105.65 313.19 100.46 322.09 97.79 331.01 97.35 340.13 99.39 349.42 103.44 358.72 108.15 368.19 113.13 377.8 117.43" stroke-dasharray="9 5" transform="rotate(9.181818181818182, 400, 400)" opacity="0.43"></path><path d="M379.24 131.86C388.42 134.18 397.58 134.74 406.67 133.61 415.78 130.61 424.86 126.89 433.89 123.22 442.95 119.84 452 118.01 461.03 118.21 470.13 120.28 479.24 124.7 488.37 131.18 497.6 139.03 506.88 148.01 516.2 157.48 525.66 166.65 535.19 175.27 544.77 182.99 554.49 189.29 564.27 194.44 574.06 198.54 583.95 201.39 593.82 203.68 603.59 205.78 613.37 207.49 622.97 209.66 632.29 212.52 641.46 215.81 650.21 220.15 658.44 225.56 666.31 231.71 673.49 238.91 679.85 247.02 685.66 255.78 690.51 265.23 694.3 275.18 697.39 285.53 699.35 296.16 700.11 306.9 700.18 317.84 699.1 328.74 696.88 339.51 694.13 350.35 690.41 360.98 685.82 371.33 681.04 381.71 675.66 391.77 669.83 401.46 664.26 411.15 658.66 420.19 653.19 428.58 648.34 436.94 643.78 444.62 639.6 451.61 636.21 458.58 633.22 464.9 630.62 470.63 628 479.14 624.81 495.35 623.74 504.18 623.35 511.11 622.73 518.86 621.8 527.68 620.96 537.8 619.66 549.22 617.84 561.91 615.92 575.61 613.39 590.13 610.22 604.95 606.86 619.41 602.82 632.93 598.13 644.69 593.21 654.14 587.65 660.59 581.48 663.57 575.11 663.5 568.19 660.19 560.76 654.21 553.18 647.27 545.14 639.91 536.72 633.52 528.2 630.02 519.33 629.87 510.19 633.79 500.99 642.16 491.55 654.09 481.91 668.4 472.25 683.59 462.42 697.53 452.46 708.18 442.5 714.36 432.41 714.72 422.24 709.05 412.06 698.73 402.02 685.09 392.16 670.33 382.28 656.84 372.56 646.18 363 639.58 353.42 637.94 343.99 640.64 334.73 646.74 325.43 655.51 316.28 664.73 307.29 672.79 298.25 678.98 289.36 681.62 280.63 680.22 271.86 675.13 263.25 666.25 254.81 654.37 246.33 640.46 238.04 625.38 229.96 610.15 221.87 595.53 213.99 582.2 206.38 570.56 198.79 560.89 191.49 553.11 184.5 546.99 177.58 542.59 171.01 539.23 164.84 536.44 155.96 533.37 140.67 525.44 134.38 519.4 130.53 514.75 127.22 509.13 124.48 502.6 121.9 495.77 119.89 488.16 118.46 479.89 117.18 471.45 116.47 462.5 116.35 453.13 116.33 443.72 116.87 433.98 117.98 423.97 119.13 413.96 120.79 403.92 122.9 393.86 124.99 383.78 127.5 373.62 130.38 363.37 133.18 353.03 136.33 342.51 139.79 331.78 143.12 320.92 146.73 309.82 150.61 298.5 154.33 287.11 158.3 275.58 162.51 264.04 166.55 252.69 170.83 241.6 175.33 230.99 179.68 221.01 184.28 211.9 189.11 203.9 193.81 196.93 198.78 191.32 204.01 187.14 209.14 183.93 214.56 181.93 220.26 180.92 225.9 180.04 231.84 179.39 238.08 178.54 244.29 176.58 250.81 173.64 257.62 169.46 264.42 163.6 271.52 156.52 278.91 148.54 286.29 139.86 293.96 131.36 301.88 123.75 309.8 117.38 317.98 113.07 326.38 111.2 334.78 111.39 343.4 113.84 352.22 118.06 361.04 122.76 370.05 127.64 379.23 131.86" stroke-dasharray="6 10" transform="rotate(13.772727272727272, 400, 400)" opacity="0.25"></path><path d="M381.76 146.29C390.54 148.63 399.32 149.34 408.09 148.44 416.87 145.74 425.65 142.25 434.43 138.62 443.23 135.05 452.05 132.7 460.88 132.07 469.77 133.07 478.69 136.26 487.63 141.5 496.66 148.25 505.75 156.4 514.87 165.42 524.09 174.6 533.36 183.67 542.65 192.23 552.04 199.75 561.43 206.29 570.8 211.83 580.21 216.08 589.54 219.54 598.72 222.46 607.85 224.63 616.76 226.78 625.33 229.18 633.72 231.55 641.66 234.59 649.05 238.4 656.09 242.64 662.44 247.79 668.01 253.81 673.06 260.36 677.21 267.69 680.38 275.66 682.93 284.05 684.45 292.91 684.89 302.08 684.74 311.51 683.55 321.1 681.35 330.72 678.7 340.46 675.19 350.12 670.9 359.62 666.46 369.15 661.46 378.46 656.04 387.47 650.84 396.48 645.58 404.95 640.41 412.89 635.77 420.82 631.35 428.25 627.23 435.19 623.78 442.2 620.67 448.85 617.88 455.22 615.76 461.83 613.9 468.4 612.24 475.09 611.12 482.32 610.07 489.98 609 498.28 608.28 507.43 607.39 517.46 606.26 528.45 605.27 540.33 603.91 553.07 602.11 566.49 600.29 580.16 597.96 593.82 595.07 606.94 592.06 618.97 588.45 629.39 584.27 637.56 577.44 644.78 560.7 641.22 550.91 632.48 544.09 626.17 536.82 620.33 529.15 616.13 521.39 615.03 513.27 617.23 504.85 623.07 496.37 632.63 487.61 644.94 478.63 658.83 469.63 672.99 460.41 685.57 451.03 694.91 441.64 700.1 432.1 700.05 422.43 694.62 412.75 685.05 403.18 672.41 393.73 658.56 384.28 645.56 374.94 634.77 365.73 627.33 356.52 624.19 347.42 625 338.46 629.16 329.48 636.24 320.63 644.43 311.92 652.35 303.18 659.4 294.57 663.88 286.11 665.15 277.63 663.32 269.3 657.91 261.14 649.34 252.97 638.35 244.97 625.44 237.19 611.48 229.41 597.17 221.86 583.2 214.56 570.11 207.3 558.24 200.32 547.83 193.66 538.9 187.08 531.54 180.84 525.44 174.99 520.29 169.25 516.23 163.93 512.6 159.05 509.07 152.2 504.26 141.18 492.38 137.11 484.69 134.74 479.19 132.91 472.93 131.64 465.95 130.51 458.86 129.93 451.12 129.91 442.78 130 434.41 130.62 425.5 131.77 416.1 132.98 406.69 134.67 397.04 136.78 387.17 138.88 377.3 141.37 367.2 144.22 356.9 147 346.58 150.1 336.03 153.5 325.31 156.77 314.6 160.32 303.75 164.12 292.86 167.76 282.13 171.65 271.5 175.75 261.15 179.7 251.23 183.87 241.85 188.24 233.22 192.47 225.34 196.92 218.47 201.6 212.77 208.53 206.13 223.45 199.31 231.47 198.03 236.83 196.99 242.47 195.73 248.38 193.89 254.25 190.75 260.4 186.53 266.82 181.12 273.22 174.28 279.91 166.53 286.86 158.26 293.8 149.7 301.01 141.67 308.46 134.81 315.92 129.32 323.62 125.91 331.56 124.83 339.49 125.62 347.65 128.41 356.02 132.75 364.39 137.41 372.97 142.18 381.75 146.29" stroke-dasharray="1 7" transform="rotate(18.363636363636363, 400, 400)" opacity="0.84"></path><path d="M385.24 160.72C393.63 163.06 402.05 163.91 410.48 163.26 418.93 160.88 427.4 157.66 435.89 154.16 444.4 150.5 452.95 147.76 461.53 146.43 470.15 146.44 478.81 148.44 487.5 152.4 496.26 157.89 505.06 164.95 513.88 173.16 522.77 181.91 531.69 190.98 540.59 199.94 549.55 208.29 558.47 215.97 567.32 222.83 576.17 228.55 584.89 233.44 593.41 237.61 601.85 240.84 610.01 243.71 617.81 246.45 625.4 248.79 632.53 251.38 639.11 254.39 645.34 257.48 650.91 261.22 655.72 265.65 660.08 270.39 663.59 275.85 666.19 281.96 668.27 288.4 669.41 295.4 669.58 302.86 669.25 310.55 667.99 318.58 665.83 326.82 663.31 335.19 660.01 343.66 656.01 352.17 651.9 360.71 647.27 369.21 642.24 377.62 637.41 386.03 632.5 394.13 627.62 401.93 623.19 409.75 618.93 417.32 614.89 424.7 611.44 432.2 608.24 439.64 605.31 447.12 602.97 454.88 600.84 462.89 598.89 471.26 597.43 480.13 596.04 489.56 594.66 499.64 593.62 510.32 592.45 521.68 591.1 533.67 589.93 546 588.45 558.66 586.63 571.32 584.83 583.58 582.6 595.14 579.91 605.53 575.51 617.91 563.97 628.45 556.82 626.01 551.75 622.18 546.19 616.97 540.17 611.11 534.03 606.1 527.46 602.21 520.5 600.34 513.45 601.56 506.03 605.82 498.3 613.2 490.52 623.56 482.44 635.91 474.11 649.16 465.75 662.19 457.16 673.42 448.37 681.5 439.57 685.79 430.59 685.38 421.44 680.19 412.3 671.34 403.21 659.68 394.22 646.75 385.22 634.33 376.3 623.56 367.49 615.5 358.67 611.09 349.94 610.19 341.33 612.45 332.71 617.7 324.2 624.51 315.81 631.75 307.4 638.96 299.12 644.55 290.99 647.77 282.84 648.64 274.84 646.39 267 641.14 259.17 633.42 251.52 623.38 244.07 611.68 236.65 598.91 229.44 585.63 222.5 572.42 215.6 559.64 208.98 547.69 202.68 536.78 196.46 527 190.58 518.37 185.07 510.77 179.68 504.26 174.68 498.47 170.13 493.17 163.73 486.28 153.52 472.74 149.78 465.25 147.62 460.15 145.97 454.47 144.86 448.18 143.89 441.86 143.43 434.93 143.51 427.38 143.68 419.8 144.37 411.64 145.57 402.9 146.82 394.17 148.52 385.09 150.63 375.73 152.72 366.39 155.19 356.78 158 346.98 160.74 337.23 163.79 327.32 167.12 317.34 170.34 307.49 173.82 297.68 177.53 288.03 181.11 278.68 184.91 269.67 188.91 261.16 192.77 253.18 196.84 245.9 201.1 239.49 207.38 231.39 220.79 221.06 227.93 218.47 235.15 216.55 250.64 212.09 258.95 207.85 264.51 203.44 270.34 198 276.42 191.53 282.47 183.97 288.78 175.85 295.34 167.59 301.88 159.42 308.68 152.07 315.72 146.08 322.75 141.54 330.02 139.03 337.53 138.7 345.03 140.02 352.76 143.1 360.71 147.5 368.66 152.1 376.84 156.72 385.23 160.72" stroke-dasharray="7 3" transform="rotate(22.954545454545453, 400, 400)" opacity="0.95"></path><path d="M389.49 175.15C397.5 177.49 405.55 178.46 413.64 178.06 421.73 176.01 429.87 173.11 438.04 169.81 446.23 166.16 454.47 163.16 462.73 161.27 471.03 160.43 479.37 161.32 487.73 164.01 496.14 168.17 504.58 173.95 513.01 181.06 521.49 188.99 529.96 197.59 538.38 206.47 546.83 215.17 555.2 223.56 563.45 231.41 571.68 238.42 579.73 244.69 587.55 250.26 595.25 254.88 602.65 258.96 609.67 262.64 616.48 265.7 622.81 268.67 628.6 271.73 636.48 276.15 648.19 287.09 651.77 293.96 653.43 298.88 654.24 304.36 654.19 310.35 653.72 316.49 652.42 323.06 650.33 330.01 647.94 337.04 644.86 344.36 641.15 351.92 637.36 359.5 633.09 367.26 628.44 375.17 623.97 383.08 619.39 390.95 614.81 398.79 610.61 406.66 606.52 414.56 602.59 422.53 599.16 430.62 595.93 438.9 592.9 447.42 590.39 456.19 588.04 465.34 585.85 474.92 584.09 484.83 582.4 495.23 580.73 506.09 579.38 517.2 577.95 528.66 576.37 540.28 574.99 551.75 573.37 563 571.47 573.68 569.64 583.52 567.44 592.22 564.87 599.38 560.75 606.83 550.2 609.07 543.73 604.42 539.16 600.2 534.15 595.42 528.71 590.78 523.18 587.54 517.23 585.82 510.91 586.25 504.51 589.57 497.76 595.54 490.68 604.05 483.55 614.83 476.13 626.93 468.43 639.35 460.71 651.16 452.73 661.06 444.54 667.95 436.34 671.41 427.93 670.69 419.33 665.76 410.74 657.61 402.17 646.89 393.65 634.89 385.14 623.13 376.68 612.53 368.29 604.06 359.91 598.62 351.59 596.2 343.37 596.68 335.15 600.06 327.02 605.25 319 611.39 310.99 618.15 303.08 624.11 295.31 628.53 287.54 631.38 279.91 631.74 272.44 629.49 265 625.01 257.72 618.13 250.65 609.28 243.62 598.95 236.81 587.49 230.24 575.41 223.74 563.07 217.51 550.87 211.59 539.14 205.76 528 200.25 517.64 195.11 508.13 190.08 499.46 185.44 491.56 181.2 484.31 177.11 477.74 173.45 471.58 170.25 465.65 167.19 460.12 164.61 454.58 162.51 448.89 160.56 443.37 159.09 437.55 158.13 431.35 157.3 425.2 156.96 418.59 157.13 411.5 157.39 404.41 158.14 396.82 159.37 388.74 160.64 380.67 162.35 372.31 164.44 363.73 166.52 355.19 168.96 346.47 171.71 337.65 174.41 328.93 177.4 320.19 180.66 311.54 183.81 303.09 187.21 294.85 190.84 286.95 194.34 279.4 198.05 272.33 201.96 265.89 205.74 259.92 209.71 254.7 213.86 250.29 219.98 244.8 233 237.98 239.91 235.95 246.87 233.62 261.74 226.28 269.67 220.1 274.98 214.49 280.52 208.01 286.3 200.78 292.03 192.82 298.01 184.66 304.22 176.71 310.41 169.17 316.84 162.67 323.5 157.65 330.14 154.09 337.03 152.45 344.14 152.81 351.24 154.6 358.58 157.91 366.14 162.33 373.69 166.82 381.47 171.28 389.48 175.15" stroke-dasharray="9 8" transform="rotate(27.545454545454543, 400, 400)" opacity="0.70"></path><path d="M394.29 189.58C401.92 191.9 409.6 192.99 417.32 192.83 425.05 191.13 432.82 188.57 440.63 185.53 448.46 182 456.33 178.88 464.23 176.58 472.15 175.04 480.1 174.96 488.06 176.46 496.05 179.28 504.04 183.69 512.01 189.5 520 196.29 527.95 204.01 535.82 212.33 543.69 220.84 551.45 229.41 559.06 237.78 566.61 245.65 573.96 253.03 581.04 259.83 588 265.84 594.64 271.29 600.88 276.24 606.91 280.49 612.48 284.45 617.52 288.24 624.34 293.3 634.24 303.88 637.13 309.9 638.69 316.31 637.51 331.48 634.85 340.23 632.61 346.24 629.75 352.65 626.33 359.45 622.84 366.25 618.93 373.41 614.65 380.92 610.52 388.43 606.27 396.13 601.99 404 598.03 411.9 594.12 420.03 590.33 428.4 586.95 436.85 583.72 445.62 580.64 454.7 578 463.92 575.49 473.5 573.09 483.41 571.09 493.43 569.15 503.73 567.22 514.2 565.6 524.58 563.91 534.9 562.11 544.96 560.52 554.52 558.73 563.44 556.73 571.4 549.93 586.16 536.33 587.71 530.4 582.35 523.97 576.81 509.05 571.1 500.6 573.89 494.79 578.97 488.64 586.25 482.17 595.48 475.66 606.31 468.85 617.89 461.76 629.32 454.65 639.89 447.29 648.49 439.68 654.26 432.07 656.98 424.24 656 416.21 651.33 408.18 643.85 400.14 634.05 392.14 622.98 384.13 611.93 376.16 601.63 368.24 592.96 360.32 586.73 352.46 583.04 344.67 581.9 336.9 583.46 329.19 586.92 321.59 591.65 314 597.46 306.51 603.14 299.15 608.02 291.8 612.07 284.59 614.31 277.54 614.49 270.51 612.87 263.66 609.04 257.01 603.22 250.4 595.81 244.01 586.91 237.86 576.92 231.78 566.17 225.97 554.97 220.45 543.68 215.02 532.43 209.91 521.5 205.15 511.06 200.5 501.08 196.21 491.71 192.32 482.92 188.56 474.67 185.21 466.91 182.29 459.55 179.51 452.59 177.17 445.86 175.29 439.25 173.55 432.86 172.27 426.43 171.46 419.89 170.77 413.44 170.54 406.78 170.79 399.87 171.12 392.98 171.91 385.79 173.16 378.31 174.46 370.83 176.15 363.24 178.21 355.6 180.27 347.98 182.66 340.36 185.35 332.81 187.99 325.35 190.92 318.05 194.09 310.99 197.17 304.13 200.49 297.62 204.03 291.56 209.26 283.17 220.51 269.85 226.49 265.06 232.46 261.17 245.12 255.55 251.81 253.01 256.23 250.75 260.85 248.14 265.66 245.01 270.39 240.91 275.32 236.08 280.46 230.47 285.53 223.89 290.82 216.69 296.33 209.05 301.78 201.05 307.47 193.19 313.37 185.83 319.24 179.12 325.33 173.6 331.65 169.6 337.94 167.01 344.47 166.2 351.21 167.18 357.94 169.36 364.9 172.83 372.08 177.22 379.25 181.58 386.65 185.86 394.28 189.58" stroke-dasharray="3 3" transform="rotate(32.13636363636363, 400, 400)" opacity="0.99"></path><path d="M399.39 204.01C406.63 206.3 413.92 207.5 421.25 207.56 428.59 206.21 435.97 204.02 443.38 201.3 450.81 197.99 458.27 194.87 465.74 192.32 473.23 190.26 480.73 189.37 488.22 189.81 495.73 191.37 503.21 194.4 510.65 198.81 518.09 204.25 525.47 210.77 532.73 218.11 539.97 225.94 547.08 234.13 554 242.46 560.85 250.65 567.48 258.62 573.82 266.26 580.04 273.36 585.92 280 591.41 286.2 596.7 291.77 601.55 296.96 605.89 301.85 611.72 308.37 619.99 320.63 622.29 326.87 623.43 333.12 621.95 347.2 619.4 355.19 617.31 360.63 614.68 366.49 611.54 372.79 608.35 379.08 604.77 385.81 600.85 392.98 597.06 400.15 593.13 407.62 589.15 415.35 585.43 423.11 581.73 431.16 578.09 439.49 574.8 447.86 571.6 456.52 568.51 465.42 565.79 474.35 563.16 483.49 560.62 492.75 558.43 501.93 556.27 511.12 554.12 520.15 552.26 528.86 550.34 537.19 548.35 544.92 542.45 561.96 531.83 571.8 527.36 569.46 522.54 565.61 511.13 557.37 504.52 555.46 499.96 556.29 495.04 558.8 489.8 563.17 484.51 569.62 478.9 577.78 472.99 587.32 467.05 597.89 460.81 608.72 454.31 619.06 447.78 628.35 441 635.7 433.98 640.44 426.95 642.49 419.7 641.3 412.24 636.9 404.77 630.06 397.29 621.15 389.82 611.01 382.35 600.71 374.89 590.85 367.46 582.15 360.05 575.38 352.67 570.66 345.36 568.12 338.06 567.99 330.83 569.71 323.68 572.85 316.56 577.35 309.53 582.22 302.62 586.9 295.73 591.37 288.98 594.7 282.38 596.57 275.81 597.18 269.41 595.96 263.21 592.94 257.06 588.48 251.11 582.44 245.41 575.07 239.78 566.7 234.4 557.47 229.3 547.69 224.3 537.53 219.6 527.22 215.23 517 210.97 506.85 207.05 497 203.5 487.53 200.08 478.34 197.04 469.57 194.41 461.2 191.91 453.12 189.81 445.37 188.15 437.89 186.61 430.61 185.5 423.5 184.84 416.49 184.28 409.58 184.15 402.7 184.47 395.81 184.87 388.94 185.7 382.02 186.96 375.04 188.26 368.07 189.94 361.2 191.96 354.47 193.97 347.76 196.3 341.23 198.92 334.93 201.5 328.71 204.34 322.78 207.42 317.2 212.04 309.26 222.18 295.9 227.65 290.62 233.14 286.01 244.78 278.85 250.93 275.82 257.08 272.28 270.09 263.12 276.96 256.77 281.52 251.47 286.26 245.54 291.19 239.01 296.06 231.81 301.12 224.27 306.38 216.62 311.59 208.94 317 201.68 322.62 195.15 328.2 189.43 333.99 184.97 339.98 182 345.96 180.34 352.14 180.29 358.54 181.8 364.92 184.3 371.51 187.87 378.32 192.17 385.12 196.37 392.14 200.44 399.38 204.01" stroke-dasharray="8 2" transform="rotate(36.72727272727273, 400, 400)" opacity="0.33"></path><path d="M404.52 218.44C411.36 220.69 418.25 221.98 425.16 222.26 432.08 221.24 439.04 219.44 446.01 217.08 453 214.06 460 211.08 467 208.43 474 206.04 481.01 204.53 487.98 204.1 494.95 204.54 501.88 206.28 508.74 209.29 515.58 213.28 522.33 218.39 528.96 224.46 535.54 231.18 541.96 238.51 548.18 246.24 554.33 254.14 560.23 262.11 565.84 270.01 571.33 277.67 576.49 285.07 581.26 292.16 585.85 298.82 590.02 305.13 593.72 311.13 598.66 319.36 605.5 334.4 607.28 341.59 608.08 348.54 606.39 363.14 603.99 371.04 602.06 376.36 599.64 382.02 596.78 388.07 593.89 394.09 590.63 400.52 587.06 407.36 583.59 414.2 579.98 421.31 576.29 428.65 572.82 436 569.34 443.59 565.87 451.37 562.69 459.14 559.56 467.06 556.5 475.08 553.75 483.02 551.06 490.96 548.42 498.8 546.08 506.42 543.76 513.79 541.45 520.76 538.33 530.29 532.06 544.85 528.77 549.26 521.72 550.88 509.02 544.12 503.85 541.13 498.36 540.14 485.81 546.03 478.76 553.93 473.93 561.31 468.8 569.92 463.4 579.4 457.97 589.42 452.27 599.32 446.31 608.49 440.33 616.52 434.11 622.69 427.65 626.5 421.19 627.95 414.51 626.6 407.62 622.47 400.73 616.26 393.81 608.19 386.88 598.97 379.96 589.46 373.03 580.13 366.13 571.59 359.25 564.5 352.39 559.02 345.58 555.33 338.79 553.71 332.06 553.78 325.41 555.29 318.79 558.26 312.25 561.93 305.83 565.85 299.44 570.07 293.18 573.72 287.06 576.49 278.03 578.89 260.94 574.95 252.96 568.62 247.79 562.94 242.86 556.2 238.21 548.63 233.64 540.43 229.36 531.74 225.39 522.76 221.52 513.55 217.97 504.3 214.78 495.15 211.69 486.03 208.97 477.13 206.62 468.5 204.39 460.01 202.54 451.8 201.08 443.89 199.75 436.1 198.8 428.57 198.27 421.27 197.84 414.05 197.81 407.01 198.19 400.14 198.65 393.3 199.5 386.6 200.76 380.03 202.05 373.47 203.69 367.2 205.66 361.23 208.76 352.44 216.29 336.59 220.64 329.64 225.12 323.16 234.94 312.32 240.24 307.88 245.57 303.64 256.87 295.83 262.84 291.73 266.77 288.49 270.86 284.98 275.1 281.1 279.25 276.54 283.57 271.49 288.04 265.93 292.44 259.7 297.01 253.01 301.74 245.96 306.42 238.57 311.27 231.12 316.3 223.83 321.27 216.81 326.44 210.4 331.79 204.88 337.1 200.25 342.6 196.88 348.29 194.92 353.96 194.11 359.82 194.73 365.88 196.68 371.92 199.41 378.17 203.01 384.61 207.18 391.04 211.18 397.68 215.04 404.51 218.44" stroke-dasharray="0 2" transform="rotate(41.31818181818182, 400, 400)" opacity="0.60"></path><path d="M409.42 232.87C415.84 235.07 422.3 236.42 428.77 236.9 435.25 236.22 441.75 234.8 448.25 232.84 454.75 230.18 461.26 227.43 467.75 224.84 474.23 222.3 480.69 220.38 487.1 219.28 493.5 218.82 499.84 219.43 506.08 221.14 512.3 223.71 518.41 227.36 524.36 231.97 536.13 243.28 547.14 257.09 557.08 272.05 566.53 287.14 574.62 301.82 581.05 315.63 583.97 322.11 586.42 328.37 588.39 334.42 590.77 343.02 592.65 359.41 592.14 367.47 590.86 375.41 585.75 391.96 582.05 400.74 579.44 406.65 576.5 412.83 573.26 419.3 570.11 425.76 566.81 432.36 563.42 439.07 560.2 445.77 556.94 452.55 553.66 459.37 550.63 466.14 547.6 472.88 544.6 479.53 541.86 486.04 539.15 492.36 536.47 498.37 532.82 506.8 525.83 520.55 522.39 525.41 515.96 530.72 500.66 526.54 491.03 523.8 485.87 525.53 474.22 536.43 467.73 545.94 463.3 553.81 458.6 562.46 453.66 571.54 448.69 580.78 443.48 589.63 438.03 597.59 432.57 604.39 426.88 609.46 420.97 612.42 415.05 613.36 408.92 611.89 402.6 608.04 396.28 602.42 389.92 595.18 383.55 586.85 377.18 578.16 370.81 569.44 364.45 561.21 358.11 554.03 351.79 548.05 345.52 543.47 339.27 540.61 333.07 539.22 326.94 539.15 320.85 540.53 314.84 542.78 308.93 545.56 303.06 548.97 297.31 552.27 291.71 555.18 280.63 560.09 270.19 560.88 260.59 557.1 251.28 549.95 242.9 538.9 235.67 525.25 232.2 517.79 229.02 510.02 226.17 502.08 223.42 493.97 221 485.84 218.93 477.8 216.97 469.73 215.35 461.81 214.11 454.1 212.96 446.42 212.18 438.97 211.77 431.76 211.46 424.59 211.51 417.64 211.95 410.95 212.44 404.28 213.31 397.83 214.55 391.62 216.63 382.51 222.32 366.16 225.84 358.91 229.57 352.02 238.06 340 242.75 334.77 247.52 329.69 257.78 320.24 263.24 315.51 270.35 308.15 278.08 300 286.34 290.52 294.29 278.86 302.86 265.74 312 251.77 316.49 244.62 321.14 237.66 325.94 231.1 330.69 224.98 335.62 219.63 340.7 215.23 348.37 210.57 364.52 208.93 373.02 211.81 378.73 214.68 384.62 218.25 390.68 222.25 396.74 226.03 402.99 229.66 409.41 232.87" stroke-dasharray="5 0" transform="rotate(45.90909090909091, 400, 400)" opacity="0.26"></path><path d="M413.82 247.3C425.8 250.54 437.86 250.82 449.84 248.54 461.84 243.53 473.76 238.61 485.4 235.29 497 233.58 508.23 235.53 518.86 241.16 529.29 249.48 538.93 260.67 547.52 273.67 555.67 287.58 562.56 301.91 567.91 315.97 572.61 329.57 575.65 342.56 576.86 354.94 577.42 366.75 576.21 378.31 573.27 389.84 570.01 401.17 565.35 412.82 559.46 424.85 553.88 436.88 547.78 448.73 541.47 460.1 535.93 471.23 530.32 481.44 524.75 490.16 517.59 500.93 503.44 509.44 495.81 508 490.85 507.42 485.18 507.42 478.74 509.46 472.37 515.57 465.11 525.43 456.96 538.91 448.79 555.24 439.69 572.02 429.76 586.33 419.78 596.26 408.98 599.04 397.45 593.61 385.92 582.32 374.26 566.93 362.65 550.96 351.09 537.84 339.63 528.85 328.45 524.57 317.38 525.49 306.64 529.2 296.44 533.7 286.42 538.81 277 541.5 268.38 540.91 260.02 538 252.54 531.52 246.11 522.19 240.03 511.11 235.06 498.38 231.37 484.92 228.04 470.96 225.99 457.04 225.34 443.7 224.98 430.33 225.96 417.69 228.35 405.98 230.86 394.28 234.54 383.99 239.19 375.03 243.76 365.91 249.2 357.87 255.35 350.65 261.27 342.83 267.86 335.21 275 327.35 281.87 318.12 289.3 307.95 297.23 296.63 304.9 283.89 313.12 270.42 321.86 257.02 330.4 244.28 339.53 233.63 349.2 226.37 358.76 222.38 368.95 222.74 379.73 227.18 390.45 233.23 401.83 240.55 413.81 247.3" stroke-dasharray="7 4" transform="rotate(50.5, 400, 400)" opacity="0.72"></path><path d="M417.5 261.73C428.57 264.94 439.64 265.67 450.58 264.15 461.52 260 472.3 255.54 482.74 252 493.12 249.24 503.07 249.27 512.39 252.36 521.52 257.72 529.86 265.93 537.19 276.28 544.15 287.96 549.94 300.71 554.34 313.8 558.24 327.04 560.66 340.08 561.5 352.66 561.84 365 560.67 376.95 557.99 388.5 555.08 399.94 550.93 411.19 545.67 422.18 540.65 433.16 535.11 443.33 529.28 452.48 524.06 461.44 518.67 469.06 513.24 475.05 506.02 482.36 491.55 487.92 483.85 488.28 478.87 490.01 473.31 493.03 467.13 498.31 461.06 507.01 454.24 518.59 446.69 532.51 439.14 547.89 430.81 562.72 421.75 574.68 412.67 582.59 402.87 584.33 392.43 579.18 381.99 569.17 371.44 555.47 360.96 540.8 350.51 527.92 340.18 517.91 330.12 511.59 320.15 509.67 310.52 510.62 301.4 513.09 292.43 517.12 284.04 520.15 276.4 521.2 268.99 521.09 262.39 518.15 256.76 512.61 251.42 505.63 247.11 496.66 243.95 486.4 241.09 475.47 239.4 463.96 238.97 452.4 238.79 440.72 239.83 429.29 242.14 418.36 244.58 407.44 248.08 397.49 252.47 388.42 256.81 379.18 261.96 370.5 267.77 362.14 273.42 353.17 279.69 344 286.48 334.34 293.05 323.64 300.16 312.15 307.71 299.95 315.06 287.15 322.91 274.35 331.21 262.38 339.35 251.68 348.01 243.38 357.14 238.43 366.17 236.33 375.74 237.9 385.81 242.77 395.84 248.67 406.42 255.48 417.5 261.73" stroke-dasharray="3 6" transform="rotate(55.090909090909086, 400, 400)" opacity="0.33"></path><path d="M420.25 276.16C430.39 279.31 440.44 280.43 450.3 279.63 460.14 276.41 469.76 272.63 478.99 269.23 488.16 265.96 496.86 264.66 504.93 265.71 512.81 268.44 519.94 273.74 526.12 281.16 532 290 536.81 300.28 540.41 311.38 543.6 323.04 545.52 334.92 546.08 346.65 546.27 358.45 545.15 369.92 542.75 380.88 540.19 391.84 536.53 402.32 531.87 412.16 527.41 422.01 522.41 430.69 517.08 438.11 512.23 445.43 507.14 451.36 501.92 455.84 494.8 461.72 480.3 468.66 472.63 472.23 467.67 476.54 462.24 482.37 456.32 490.22 450.51 500.59 444.1 512.89 437.1 526.38 430.12 540.28 422.5 552.95 414.27 562.63 406.04 568.72 397.19 569.58 387.81 564.75 378.43 555.96 368.98 543.91 359.61 530.66 350.27 518.39 341.06 507.93 332.12 500.15 323.27 495.86 314.74 494.16 306.69 494.25 298.78 496.34 291.41 498.46 284.73 499.69 275.37 500.33 261.18 490.41 256.68 480.35 254.27 472.55 252.91 463.7 252.68 454.24 252.65 444.62 253.72 434.69 255.94 424.67 258.27 414.64 261.56 405 265.67 395.7 269.75 386.25 274.58 376.89 280.03 367.46 285.35 357.58 291.27 347.3 297.67 336.55 303.89 325.23 310.62 313.46 317.76 301.52 324.73 289.67 332.16 278.43 339.98 268.55 347.68 260.21 355.82 254.33 364.36 251.51 372.83 251.01 381.75 253.51 391.08 258.57 400.38 264.18 410.12 270.42 420.25 276.16" stroke-dasharray="9 11" transform="rotate(59.68181818181819, 400, 400)" opacity="0.34"></path><path d="M421.95 290.59C431.1 293.64 440.11 295.07 448.87 294.93 457.62 292.65 466.08 289.7 474.13 286.77 482.11 283.48 489.62 281.46 496.5 281.11 503.22 281.8 509.24 284.58 514.39 289.26 519.29 295.14 523.26 302.57 526.16 311.09 528.76 320.31 530.27 330.12 530.62 340.1 530.71 350.35 529.69 360.49 527.56 370.26 525.34 380.09 522.16 389.45 518.07 398.12 514.15 406.8 509.69 414.33 504.88 420.7 500.43 427.06 495.69 432.28 490.77 436.47 486.26 440.81 481.54 444.42 476.64 447.62 472.09 451.57 467.26 455.8 462.16 460.77 457.29 467.34 452.04 475.28 446.4 484.71 440.87 495.75 434.86 507.83 428.39 520.17 421.95 532.19 414.99 542.62 407.56 550.17 400.12 554.64 392.19 554.8 383.83 550.32 375.46 542.69 367.08 532.24 358.81 520.5 350.56 509.13 342.46 498.75 334.63 490.14 326.87 484.1 319.42 480.15 312.43 477.91 302.36 477.88 285.38 479.05 278.8 477.36 273.31 473.72 267.05 458.55 266.45 447.81 266.55 440.19 267.63 431.81 269.74 422.81 271.93 413.81 275 404.65 278.8 395.38 282.59 386.02 287.07 376.4 292.11 366.52 297.07 356.41 302.58 345.92 308.53 335.15 314.37 324.27 320.65 313.32 327.32 302.71 333.86 292.64 340.81 283.59 348.1 276.14 355.29 270.24 362.87 266.62 370.78 265.64 378.63 266.41 386.86 269.51 395.4 274.53 403.92 279.75 412.79 285.38 421.95 290.59" stroke-dasharray="1 9" transform="rotate(64.27272727272727, 400, 400)" opacity="0.22"></path><path d="M422.49 305.02C430.64 307.93 438.59 309.6 446.25 310.04 453.9 308.66 461.23 306.61 468.14 304.37 478.18 300.4 495.31 298.08 502.05 301 506.1 304.3 509.33 309.02 511.65 314.87 513.76 321.37 514.95 328.67 515.15 336.43 515.18 344.5 514.28 352.76 512.44 360.91 510.54 369.16 507.81 377.16 504.27 384.71 500.86 392.26 496.95 398.99 492.66 404.9 488.64 410.85 484.31 416.12 479.76 420.83 475.52 425.83 471.04 430.61 466.37 435.45 461.97 441.04 457.32 447.16 452.43 454.05 447.73 462.1 442.72 471.15 437.4 481.09 432.19 491.82 426.6 502.87 420.66 513.54 414.75 523.46 408.45 531.67 401.78 537.28 395.11 540.37 388.07 539.98 380.69 535.89 373.31 529.35 365.97 520.44 358.76 510.25 351.57 500.04 344.55 490.18 337.79 481.35 331.09 474.26 324.7 468.66 318.72 464.47 310.13 461.2 295.75 458.28 290.25 456.36 285.68 453.71 280.62 442.69 280.3 434.31 280.5 428.28 281.56 421.3 283.53 413.41 285.57 405.52 288.39 397.14 291.86 388.39 295.33 379.64 299.42 370.48 304.02 361.03 308.58 351.58 313.63 341.89 319.09 332.2 324.46 322.72 330.25 313.52 336.38 304.99 342.43 297.22 348.83 290.63 355.52 285.67 362.15 282.03 369.1 280.36 376.32 280.81 383.5 282.46 390.97 285.86 398.69 290.65 406.39 295.37 414.35 300.36 422.49 305.02" stroke-dasharray="6 7" transform="rotate(68.86363636363636, 400, 400)" opacity="0.42"></path><path d="M421.86 319.45C428.98 322.17 435.86 324 442.45 324.91 449.01 324.35 455.25 323.21 461.08 321.78 469.51 318.68 483.7 315.29 489.2 316.19 493.81 318.89 499.12 330.29 499.7 338.28 499.71 344.07 498.94 350.29 497.38 356.72 495.79 363.23 493.48 369.81 490.48 376.34 487.56 382.87 484.18 389.01 480.43 394.78 476.87 400.62 472.99 406.23 468.87 411.71 464.97 417.47 460.83 423.37 456.49 429.54 452.35 436.28 447.98 443.55 443.4 451.42 438.97 459.94 434.28 469.02 429.36 478.46 424.52 488.07 419.39 497.5 414 506.17 408.65 513.94 403 520.07 397.08 523.97 391.17 525.92 384.99 525.12 378.57 521.46 372.15 515.95 365.81 508.51 359.62 499.87 353.45 490.99 347.46 482.04 341.74 473.55 336.06 466.1 330.66 459.57 325.66 454.06 318.45 448.1 306.52 440.35 302.02 437.06 298.29 433.88 294.33 424.16 294.22 417.18 294.5 412.2 295.52 406.33 297.33 399.57 299.19 392.81 301.73 385.51 304.85 377.82 307.97 370.17 311.64 362.18 315.77 354.03 319.87 346.01 324.41 337.97 329.33 330.17 334.19 322.73 339.42 315.8 344.95 309.71 350.42 304.36 356.21 300.18 362.24 297.44 368.23 295.69 374.49 295.51 380.95 296.95 387.39 299.1 394.06 302.51 400.9 306.88 407.73 311.02 414.74 315.35 421.86 319.45" stroke-dasharray="0 4" transform="rotate(73.45454545454545, 400, 400)" opacity="0.45"></path><path d="M420.08 333.88C432.23 337.66 443.38 339.09 453.03 338.76 466.45 334.55 482.63 337.23 484.3 346.77 484.25 354.67 481.73 364.62 476.68 375.8 471.9 386.97 465.47 398.37 458.08 410.05 451.27 422.49 443.46 436.39 435.03 451.55 427 467.67 418.06 483.99 408.44 497.81 398.94 508.18 388.54 511.91 377.57 507.03 366.59 496.88 356.08 482.06 346.56 466.43 337.14 452.81 328.87 441.35 322.29 432.2 315.96 425.77 311.48 419.63 309.31 412.56 307.45 406.02 307.94 397.22 311.13 385.87 314.49 374.52 320.1 361.82 327.34 349.04 334.53 336.92 343.27 325.93 353.03 317.86 362.67 312.04 373.38 310.53 384.69 313.91 395.96 318.67 407.92 326 420.08 333.88" stroke-dasharray="2 8" transform="rotate(78.04545454545455, 400, 400)" opacity="0.89"></path><path d="M417.24 348.31C427.3 351.88 436.39 354.06 444.15 355.06 461.29 354 467.96 370.11 462.88 383.25 458.99 392.67 453.62 403.26 447.36 414.66 441.45 426.41 434.62 439.35 427.23 452.72 420.12 465.99 412.27 478.5 403.96 488.25 395.73 495.17 386.89 497.02 377.74 492.6 368.59 484.58 359.99 472.76 352.31 459.68 344.69 447.26 338.1 435.65 332.95 425.51 327.95 417.08 324.49 409.28 322.93 401.54 321.57 394.35 322.14 386.17 324.92 376.85 327.83 367.52 332.62 357.96 338.76 349.07 344.9 340.71 352.35 333.93 360.65 329.83 368.9 327.11 378.03 327.64 387.59 331.53 397.14 335.8 407.18 341.8 417.24 348.31" stroke-dasharray="5 4" transform="rotate(82.63636363636364, 400, 400)" opacity="0.78"></path><path d="M413.5 362.74C421.48 365.94 428.6 368.52 434.6 370.46 447.81 372.47 453 385.69 449.09 396.25 446.04 403.93 441.76 412.92 436.67 422.64 431.8 432.41 426.11 442.84 419.95 453.05 413.94 462.73 407.37 471.27 400.48 477.36 393.66 481.46 386.43 481.96 379.09 478.17 371.74 472.1 364.96 463.18 359 452.95 353.07 442.68 348.02 432.34 344.15 422.71 340.36 413.89 337.81 405.58 336.75 397.81 335.81 390.39 336.39 382.92 338.72 375.47 341.13 368.03 345.04 361.29 350.03 355.73 355.04 350.47 361.11 346.86 367.86 345.41 374.59 344.56 382.01 345.98 389.74 349.56 397.47 352.99 405.52 357.61 413.5 362.74" stroke-dasharray="2 2" transform="rotate(87.22727272727273, 400, 400)" opacity="0.76"></path><path d="M409.05 377.17C420.9 381.23 429.93 385.18 434.78 389.66 439.45 392.11 439.92 398.7 435.29 410.48 430.91 422.26 422.73 437.28 413.07 450.86 403.75 462.44 392.61 468.35 381.53 463.75 370.44 454.16 361.39 438.29 355.88 422.5 350.51 407.6 348.93 393.5 352.51 382.21 356.3 370.92 364.5 364.34 374.71 363.72 384.95 363.59 397.2 368.72 409.05 377.17" stroke-dasharray="4 8" transform="rotate(91.81818181818181, 400, 400)" opacity="0.22"></path><path d="M404.13 391.6C414.88 397.07 424.28 410.4 421.5 421.25 418.63 429.22 413.11 438.02 406.51 444.95 400.05 450.79 392.39 452.96 384.94 449.32 377.48 443.48 371.58 433.62 368.11 423.22 364.69 412.75 363.8 402.5 366.31 394.83 368.91 387.16 374.44 383.37 381.27 383.43 388.15 383.26 396.32 386.23 404.13 391.6" stroke-dasharray="2 3" transform="rotate(96.4090909090909, 400, 400)" opacity="0.88"></path></g></svg>