<svg xmlns="http://www.w3.org/2000/svg" version="1.1" xmlns:xlink="http://www.w3.org/1999/xlink" xmlns:svgjs="http://svgjs.dev/svgjs" viewBox="0 0 1422 800"><g stroke-width="1" stroke="#16a34a" fill="none" stroke-linecap="round"><path d="M 0 5016 Q 355.5 10 711 400 Q 1066.5 790 1422 5016" opacity="0.05"></path><path d="M 0 4940 Q 355.5 10 711 400 Q 1066.5 790 1422 4940" opacity="0.06"></path><path d="M 0 4864 Q 355.5 10 711 400 Q 1066.5 790 1422 4864" opacity="0.08"></path><path d="M 0 4788 Q 355.5 10 711 400 Q 1066.5 790 1422 4788" opacity="0.09"></path><path d="M 0 4712 Q 355.5 10 711 400 Q 1066.5 790 1422 4712" opacity="0.11"></path><path d="M 0 4636 Q 355.5 10 711 400 Q 1066.5 790 1422 4636" opacity="0.12"></path><path d="M 0 4560 Q 355.5 10 711 400 Q 1066.5 790 1422 4560" opacity="0.14"></path><path d="M 0 4484 Q 355.5 10 711 400 Q 1066.5 790 1422 4484" opacity="0.15"></path><path d="M 0 4408 Q 355.5 10 711 400 Q 1066.5 790 1422 4408" opacity="0.17"></path><path d="M 0 4332 Q 355.5 10 711 400 Q 1066.5 790 1422 4332" opacity="0.18"></path><path d="M 0 4256 Q 355.5 10 711 400 Q 1066.5 790 1422 4256" opacity="0.20"></path><path d="M 0 4180 Q 355.5 10 711 400 Q 1066.5 790 1422 4180" opacity="0.21"></path><path d="M 0 4104 Q 355.5 10 711 400 Q 1066.5 790 1422 4104" opacity="0.23"></path><path d="M 0 4028 Q 355.5 10 711 400 Q 1066.5 790 1422 4028" opacity="0.24"></path><path d="M 0 3952 Q 355.5 10 711 400 Q 1066.5 790 1422 3952" opacity="0.25"></path><path d="M 0 3876 Q 355.5 10 711 400 Q 1066.5 790 1422 3876" opacity="0.27"></path><path d="M 0 3800 Q 355.5 10 711 400 Q 1066.5 790 1422 3800" opacity="0.28"></path><path d="M 0 3724 Q 355.5 10 711 400 Q 1066.5 790 1422 3724" opacity="0.30"></path><path d="M 0 3648 Q 355.5 10 711 400 Q 1066.5 790 1422 3648" opacity="0.31"></path><path d="M 0 3572 Q 355.5 10 711 400 Q 1066.5 790 1422 3572" opacity="0.33"></path><path d="M 0 3496 Q 355.5 10 711 400 Q 1066.5 790 1422 3496" opacity="0.34"></path><path d="M 0 3420 Q 355.5 10 711 400 Q 1066.5 790 1422 3420" opacity="0.36"></path><path d="M 0 3344 Q 355.5 10 711 400 Q 1066.5 790 1422 3344" opacity="0.37"></path><path d="M 0 3268 Q 355.5 10 711 400 Q 1066.5 790 1422 3268" opacity="0.39"></path><path d="M 0 3192 Q 355.5 10 711 400 Q 1066.5 790 1422 3192" opacity="0.40"></path><path d="M 0 3116 Q 355.5 10 711 400 Q 1066.5 790 1422 3116" opacity="0.42"></path><path d="M 0 3040 Q 355.5 10 711 400 Q 1066.5 790 1422 3040" opacity="0.43"></path><path d="M 0 2964 Q 355.5 10 711 400 Q 1066.5 790 1422 2964" opacity="0.44"></path><path d="M 0 2888 Q 355.5 10 711 400 Q 1066.5 790 1422 2888" opacity="0.46"></path><path d="M 0 2812 Q 355.5 10 711 400 Q 1066.5 790 1422 2812" opacity="0.47"></path><path d="M 0 2736 Q 355.5 10 711 400 Q 1066.5 790 1422 2736" opacity="0.49"></path><path d="M 0 2660 Q 355.5 10 711 400 Q 1066.5 790 1422 2660" opacity="0.50"></path><path d="M 0 2584 Q 355.5 10 711 400 Q 1066.5 790 1422 2584" opacity="0.52"></path><path d="M 0 2508 Q 355.5 10 711 400 Q 1066.5 790 1422 2508" opacity="0.53"></path><path d="M 0 2432 Q 355.5 10 711 400 Q 1066.5 790 1422 2432" opacity="0.55"></path><path d="M 0 2356 Q 355.5 10 711 400 Q 1066.5 790 1422 2356" opacity="0.56"></path><path d="M 0 2280 Q 355.5 10 711 400 Q 1066.5 790 1422 2280" opacity="0.58"></path><path d="M 0 2204 Q 355.5 10 711 400 Q 1066.5 790 1422 2204" opacity="0.59"></path><path d="M 0 2128 Q 355.5 10 711 400 Q 1066.5 790 1422 2128" opacity="0.61"></path><path d="M 0 2052 Q 355.5 10 711 400 Q 1066.5 790 1422 2052" opacity="0.62"></path><path d="M 0 1976 Q 355.5 10 711 400 Q 1066.5 790 1422 1976" opacity="0.63"></path><path d="M 0 1900 Q 355.5 10 711 400 Q 1066.5 790 1422 1900" opacity="0.65"></path><path d="M 0 1824 Q 355.5 10 711 400 Q 1066.5 790 1422 1824" opacity="0.66"></path><path d="M 0 1748 Q 355.5 10 711 400 Q 1066.5 790 1422 1748" opacity="0.68"></path><path d="M 0 1672 Q 355.5 10 711 400 Q 1066.5 790 1422 1672" opacity="0.69"></path><path d="M 0 1596 Q 355.5 10 711 400 Q 1066.5 790 1422 1596" opacity="0.71"></path><path d="M 0 1520 Q 355.5 10 711 400 Q 1066.5 790 1422 1520" opacity="0.72"></path><path d="M 0 1444 Q 355.5 10 711 400 Q 1066.5 790 1422 1444" opacity="0.74"></path><path d="M 0 1368 Q 355.5 10 711 400 Q 1066.5 790 1422 1368" opacity="0.75"></path><path d="M 0 1292 Q 355.5 10 711 400 Q 1066.5 790 1422 1292" opacity="0.77"></path><path d="M 0 1216 Q 355.5 10 711 400 Q 1066.5 790 1422 1216" opacity="0.78"></path><path d="M 0 1140 Q 355.5 10 711 400 Q 1066.5 790 1422 1140" opacity="0.80"></path><path d="M 0 1064 Q 355.5 10 711 400 Q 1066.5 790 1422 1064" opacity="0.81"></path><path d="M 0 988 Q 355.5 10 711 400 Q 1066.5 790 1422 988" opacity="0.82"></path><path d="M 0 912 Q 355.5 10 711 400 Q 1066.5 790 1422 912" opacity="0.84"></path><path d="M 0 836 Q 355.5 10 711 400 Q 1066.5 790 1422 836" opacity="0.85"></path><path d="M 0 760 Q 355.5 10 711 400 Q 1066.5 790 1422 760" opacity="0.87"></path><path d="M 0 684 Q 355.5 10 711 400 Q 1066.5 790 1422 684" opacity="0.88"></path><path d="M 0 608 Q 355.5 10 711 400 Q 1066.5 790 1422 608" opacity="0.90"></path><path d="M 0 532 Q 355.5 10 711 400 Q 1066.5 790 1422 532" opacity="0.91"></path><path d="M 0 456 Q 355.5 10 711 400 Q 1066.5 790 1422 456" opacity="0.93"></path><path d="M 0 380 Q 355.5 10 711 400 Q 1066.5 790 1422 380" opacity="0.94"></path><path d="M 0 304 Q 355.5 10 711 400 Q 1066.5 790 1422 304" opacity="0.96"></path><path d="M 0 228 Q 355.5 10 711 400 Q 1066.5 790 1422 228" opacity="0.97"></path><path d="M 0 152 Q 355.5 10 711 400 Q 1066.5 790 1422 152" opacity="0.99"></path></g></svg>